<svg width="115" height="41" viewBox="0 0 115 41" fill="none" xmlns="http://www.w3.org/2000/svg">
<path d="M4.56404 12.5239V23.3793C5.78447 22.1831 7.48117 21.4355 9.32671 21.4355C13.0773 21.4355 16.1135 24.5156 16.1135 28.2836C16.1135 32.0815 13.0773 35.1318 9.32671 35.1318C7.48117 35.1318 5.78447 34.3842 4.56404 33.188V34.7729H0.753906V12.5239H4.56404ZM11.202 30.7657C11.8271 30.1078 12.1843 29.2107 12.1843 28.2836C12.1843 27.3566 11.8271 26.4893 11.202 25.8015C10.5769 25.1436 9.74344 24.7848 8.85044 24.7848C7.95744 24.7848 7.09421 25.1436 6.46911 25.8015C5.84401 26.4893 5.48681 27.3566 5.48681 28.2836C5.48681 29.2107 5.84401 30.1078 6.46911 30.7657C7.09421 31.4236 7.95744 31.7825 8.85044 31.7825C9.74344 31.7825 10.5769 31.4236 11.202 30.7657Z" fill="#255048"/>
<path d="M18.3407 34.7729V12.5239H22.1508V34.7729H18.3407Z" fill="#255048"/>
<path d="M63.6523 21.884L64.2178 22.9008C65.1406 22.0934 66.3313 21.5252 67.4624 21.5252C69.308 21.5252 70.9154 22.512 71.987 24.0671C73.0288 22.512 74.6957 21.5252 76.5115 21.5252C79.6965 21.5252 82.2862 24.5754 82.2862 28.3733V34.7729H78.9523V28.3733C78.9523 26.5192 77.7915 24.8745 76.0948 24.8745C74.4278 24.8745 73.3265 26.5492 73.2669 28.164V34.7729H69.933V28.3733C69.933 26.5192 68.7424 24.8745 67.0754 24.8745C65.6169 24.8745 64.6941 26.0109 64.3369 27.3566V34.7729H60.7649V21.884H63.6523Z" fill="#255048"/>
<path d="M93.6373 30.8554L96.4354 32.7394C95.2149 34.2048 93.3397 35.1318 91.2858 35.1318C87.5352 35.1318 84.4692 32.0516 84.4692 28.2836C84.4692 24.4857 87.5352 21.4355 91.2858 21.4355C95.0364 21.4355 98.1023 24.4857 98.1023 28.2836C98.1023 28.7023 98.0726 29.0911 97.9833 29.5097H88.3984C88.577 29.9882 88.8151 30.4069 89.1425 30.7657C89.7676 31.4535 90.5714 31.8124 91.4346 31.8124C92.2383 31.8124 93.042 31.4535 93.6373 30.8554ZM88.3388 27.237H94.5006C94.3517 26.6987 94.0838 26.1903 93.6969 25.7716C93.1015 25.1137 92.2681 24.7549 91.4346 24.7549C90.5714 24.7549 89.7676 25.1137 89.1425 25.7716C88.7853 26.1903 88.5174 26.6987 88.3388 27.237Z" fill="#255048"/>
<path d="M107.131 21.4953C111.09 21.4953 114.245 24.5455 114.245 28.3135C114.245 32.1114 111.09 35.1318 107.131 35.1318C103.202 35.1318 100.047 32.1114 100.047 28.3135C100.047 24.5455 103.202 21.4953 107.131 21.4953ZM109.542 30.8255C110.167 30.1377 110.495 29.2406 110.495 28.2836C110.495 27.3566 110.167 26.4893 109.542 25.8314C108.887 25.1436 108.084 24.7848 107.161 24.7848C106.298 24.7848 105.434 25.1436 104.839 25.8314C104.154 26.4893 103.827 27.3865 103.827 28.3135C103.827 29.2705 104.154 30.1377 104.839 30.8255C105.434 31.4834 106.298 31.8423 107.161 31.8423C108.084 31.8423 108.887 31.4834 109.542 30.8255Z" fill="#255048"/>
<path fill-rule="evenodd" clip-rule="evenodd" d="M52.4945 14.0616C47.1155 8.33039 38.1185 8.04223 32.4193 13.4212C31.4908 14.2857 30.6903 15.2783 30.05 16.3028C29.4096 16.4309 28.7693 16.591 28.1289 16.7831C27.6807 18.1599 27.4565 19.6007 27.4565 21.1055C27.4565 24.3713 28.5452 27.381 30.4022 29.7824C28.8333 31.5754 27.9048 33.7526 27.9048 36.1219C27.9048 37.3066 28.1289 38.4592 28.5772 39.5158C29.8899 39.868 31.3307 40.0281 32.8035 40.0281C36.2294 40.0281 39.3992 39.0355 41.8326 37.3706C44.33 39.0355 47.5318 40.0281 51.0537 40.0281C52.5906 40.0281 54.0634 39.836 55.4402 39.4838C55.8564 38.4272 56.1125 37.3066 56.1125 36.1539C56.1125 33.6885 55.056 31.4153 53.327 29.5582C55.056 27.2209 56.1125 24.3073 56.1125 21.1375C56.1125 19.6007 55.8564 18.1279 55.4082 16.7511C55.056 16.655 54.7038 16.559 54.3195 16.4629C53.8073 15.6305 53.1989 14.83 52.4945 14.0616Z" fill="#99CC33"/>
<path fill-rule="evenodd" clip-rule="evenodd" d="M28.6416 17.9038C28.6416 15.3743 30.6907 13.2932 33.2522 13.2932C35.7816 13.2932 37.8307 15.3743 37.8307 17.9038C37.8307 20.4652 35.7816 22.5143 33.2522 22.5143C30.6907 22.5143 28.6416 20.4652 28.6416 17.9038Z" fill="#255048"/>
<path fill-rule="evenodd" clip-rule="evenodd" d="M45.9951 17.9038C45.9951 15.3744 48.0763 13.2932 50.6057 13.2932C53.1671 13.2932 55.2163 15.3744 55.2163 17.9038C55.2163 20.4652 53.1671 22.5143 50.6057 22.5143C48.0763 22.5143 45.9951 20.4652 45.9951 17.9038Z" fill="#255048"/>
<path fill-rule="evenodd" clip-rule="evenodd" d="M58.4501 17.9998C58.4501 22.2902 54.9921 25.7801 50.7017 25.7801C46.4113 25.7801 42.9214 22.2902 42.9214 17.9998C42.9214 13.7094 46.4113 10.2515 50.7017 10.2515C54.9921 10.2515 58.4501 13.7094 58.4501 17.9998ZM46.7955 17.9998C46.7955 20.177 48.5245 21.906 50.7017 21.906C52.8789 21.906 54.6079 20.177 54.6079 17.9998C54.6079 15.8226 52.8789 14.0936 50.7017 14.0936C48.5245 14.0936 46.7955 15.8226 46.7955 17.9998Z" fill="white"/>
<path d="M43.5876 1.62912C47.2028 3.4582 49.9836 10.3234 49.9836 10.3234C49.9836 10.3234 34.3736 10.7063 28.1468 15.6994C25.5641 17.7703 22.8893 19.1075 22.8893 19.1075C22.8893 19.1075 21.9024 13.9163 22.8893 10.7638C24.1956 6.5907 25.7613 3.64985 30.3255 1.62912C34.9011 -0.396656 39.1583 -0.611845 43.5876 1.62912Z" fill="#FD554A"/>
<ellipse cx="46.8198" cy="9.99284" rx="2.36132" ry="1.93628" fill="white"/>
<ellipse cx="49.5586" cy="8.95387" rx="2.36132" ry="1.93628" fill="white"/>
<ellipse cx="43.9853" cy="10.9374" rx="2.36132" ry="1.93628" fill="white"/>
<ellipse cx="40.5854" cy="10.9374" rx="2.36132" ry="1.93628" fill="white"/>
<ellipse cx="37.0908" cy="11.3152" rx="2.36132" ry="1.93628" fill="white"/>
<ellipse cx="33.8794" cy="11.693" rx="2.36132" ry="1.93628" fill="white"/>
<ellipse cx="22.9228" cy="19.8159" rx="2.36132" ry="1.93628" fill="white"/>
<path fill-rule="evenodd" clip-rule="evenodd" d="M41.0961 17.9998C41.0961 22.2902 37.6061 25.7801 33.3157 25.7801C29.0573 25.7801 25.5674 22.2902 25.5674 17.9998C25.5674 13.7094 29.0573 10.2515 33.3157 10.2515C37.6061 10.2515 41.0961 13.7094 41.0961 17.9998ZM29.4095 17.9998C29.4095 20.177 31.1705 21.906 33.3157 21.906C35.4929 21.906 37.2539 20.177 37.2539 17.9998C37.2539 15.8226 35.4929 14.0936 33.3157 14.0936C31.1705 14.0936 29.4095 15.8226 29.4095 17.9998Z" fill="white"/>
</svg>
